<svg id="visual" viewBox="0 0 960 540" width="960" height="540" xmlns="http://www.w3.org/2000/svg" xmlns:xlink="http://www.w3.org/1999/xlink" version="1.1"><path d="M0 479L16 476.2C32 473.3 64 467.7 96 468.5C128 469.3 160 476.7 192 480C224 483.3 256 482.7 288 480.8C320 479 352 476 384 473C416 470 448 467 480 466.3C512 465.7 544 467.3 576 469.7C608 472 640 475 672 470C704 465 736 452 768 449.3C800 446.7 832 454.3 864 457.5C896 460.7 928 459.3 944 458.7L960 458L960 541L944 541C928 541 896 541 864 541C832 541 800 541 768 541C736 541 704 541 672 541C640 541 608 541 576 541C544 541 512 541 480 541C448 541 416 541 384 541C352 541 320 541 288 541C256 541 224 541 192 541C160 541 128 541 96 541C64 541 32 541 16 541L0 541Z" fill="#5785a0" stroke-linecap="round" stroke-linejoin="miter"></path></svg>